<svg width="202" height="62" xmlns="http://www.w3.org/2000/svg"><g fill="none" fill-rule="evenodd"><path d="M186.8 1H12l-3 .3A9.9 9.9 0 0 0 4 4a9.3 9.3 0 0 0-2.7 5.2l-.3 3v37.6l.3 3A9.8 9.8 0 0 0 4 58a9.3 9.3 0 0 0 5.2 2.7 19.9 19.9 0 0 0 4.3.3h174.9a61.4 61.4 0 0 0 4.3-.3 10 10 0 0 0 5.2-2.7 9.5 9.5 0 0 0 2.7-5.2l.2-3V12c0-1 0-2-.2-3a9.8 9.8 0 0 0-2.7-5.1 9.5 9.5 0 0 0-5.2-2.7l-3-.3h-2.9" fill="#000"/><path d="M13.5 59.7a58.8 58.8 0 0 1-4.1-.3 8.7 8.7 0 0 1-4.5-2.3 7.9 7.9 0 0 1-2.3-4.5l-.3-2.8V13.4a149.9 149.9 0 0 1 .3-4 8.5 8.5 0 0 1 2.3-4.5 8.2 8.2 0 0 1 4.5-2.3l2.8-.3h177.5c.8 0 1.8 0 2.8.3a8.2 8.2 0 0 1 6.8 6.8c.2 1 .2 1.9.2 2.8v37.6c0 .9 0 1.8-.2 2.8A8.5 8.5 0 0 1 197 57a8 8 0 0 1-4.5 2.3 18.6 18.6 0 0 1-4.1.3H13.5zm55.6-20.5l1.8-5 .7-2.3.8 2.3 1.8 5h-5.1zm6 2.3l1.8 4.7H80l-7-17.4h-2.9l-6.8 17.4h3l1.8-4.7h7zM89.2 43a3 3 0 0 1-2.6 1.2 5.5 5.5 0 0 1-2.2-.4v-7a6 6 0 0 1 1.4-1 3 3 0 0 1 1.6-.4c.8 0 1.5.3 2 1 .5.6.7 1.6.7 3 0 1.6-.3 2.8-.9 3.6zm-7.8-6.6v15.2l3-.3V46a7.5 7.5 0 0 0 5.8-.4c1-.6 1.6-1.4 2.1-2.4a8 8 0 0 0 .8-3.9 8 8 0 0 0-.7-3.6c-.4-1-1-1.6-1.7-2-.8-.5-1.6-.7-2.4-.7-1.5 0-2.8.6-4 1.9 0-.6 0-1.1-.2-1.6h-2.8l.1 3.1zm21.4 6.6a3 3 0 0 1-2.6 1.2 5.5 5.5 0 0 1-2.2-.4v-7a6 6 0 0 1 1.4-1c.4-.3 1-.4 1.5-.4.9 0 1.5.3 2 1 .5.6.8 1.6.8 3 0 1.6-.3 2.8-1 3.6zM95 36.4v15.2l3-.3V46a7.5 7.5 0 0 0 5.8-.4c.9-.6 1.6-1.4 2.1-2.4.5-1.1.8-2.4.8-3.9a8 8 0 0 0-.7-3.6c-.4-1-1-1.6-1.8-2-.7-.5-1.5-.7-2.3-.7-1.5 0-2.8.6-4 1.9l-.2-1.6h-2.8l.1 3.1zm17.3 9c1.2.6 2.7 1 4.5 1A14.6 14.6 0 0 0 123 45v-7.3h-6.8V40h4v3.5a9 9 0 0 1-3.4.5c-1.2 0-2.3-.2-3.1-.8a4.9 4.9 0 0 1-1.8-2.3c-.4-1-.6-2-.6-3.3a8 8 0 0 1 .7-3.6 5 5 0 0 1 2.1-2.2c1-.6 2-.8 3.2-.8 1.4 0 3 .4 4.5 1.1l.8-2.3a12.4 12.4 0 0 0-5.4-1.2 10 10 0 0 0-4.6 1 7.6 7.6 0 0 0-3.2 3c-.8 1.5-1.2 3.1-1.2 5 0 1.8.3 3.4 1 4.7a7.2 7.2 0 0 0 3 3zm19.7-1.6a4 4 0 0 1-1.8.4 2 2 0 0 1-1.4-.4c-.3-.4-.5-.8-.5-1.5 0-.6.3-1.2.7-1.6.5-.4 1.3-.6 2.6-.6.5 0 1.1 0 2 .2v2.4c-.5.4-1 .8-1.6 1zm1.8 2.4h2.8l-.1-2.5v-5.1c0-1.4-.2-2.5-.7-3.3-.4-.9-1-1.4-1.8-1.8a8 8 0 0 0-2.9-.5 12 12 0 0 0-4.8 1l.5 2.1a10.6 10.6 0 0 1 4-.9c.8 0 1.5.2 2 .7.5.5.7 1.3.7 2.4v.3c-.7-.2-1.5-.2-2.3-.2-2.1 0-3.6.4-4.5 1.1-1 .8-1.4 1.8-1.4 3 0 .8.2 1.6.6 2.1.3.6.8 1 1.4 1.4.6.3 1.3.4 2 .4a5.7 5.7 0 0 0 4.2-2l.3 1.8zM139 43c0 2.2 1 3.3 3 3.3a7 7 0 0 0 2.2-.4l-.4-2h-.7c-.4 0-.7 0-1-.3l-.2-1.2v-15l-3 .3V43zm7.3 0c0 2.2 1 3.3 3 3.3a7 7 0 0 0 2.2-.4l-.3-2h-.8c-.4 0-.7 0-.9-.3-.2-.2-.2-.6-.2-1.2v-15l-3 .3V43zm14.6-4.9h-5.5c.2-1 .5-1.8 1-2.3.5-.5 1.1-.8 1.9-.8.8 0 1.4.3 1.8.8.5.5.8 1.3.8 2.3zm2.9 1.9v-.8c0-1.1-.2-2.2-.6-3.1a5 5 0 0 0-4.8-3.2c-1.2 0-2.3.3-3.2.8-.9.6-1.6 1.4-2 2.4a7 7 0 0 0-.8 3.7 8 8 0 0 0 .7 3.5 5 5 0 0 0 2.1 2.2c1 .5 2.1.8 3.5.8a11 11 0 0 0 4.8-1l-.6-2a11 11 0 0 1-3.7.7c-2.4 0-3.7-1.3-3.8-4h8.4zm2.4-3.6v9.7h3v-8.3c.5-.8 1-1.4 1.6-1.8.5-.3 1.1-.5 1.8-.5l1 .1.3-2.5-1.2-.2a3 3 0 0 0-1.5.4c-.4.2-.8.5-1.1 1-.4.3-.7.8-1 1.4a36.3 36.3 0 0 0-.3-2.5h-2.7v3.2zm9.5 15h1.4c1 0 1.8-.1 2.5-.5a5 5 0 0 0 1.9-1.7c.5-.7 1-1.7 1.4-3l4.8-13h-3l-2.4 7.3-.8 2.8-.8-2.9-2.4-7.2h-3.1l4.7 13-.2.4c-.6 1.7-1.6 2.6-3 2.6l-.8-.1-.7-.2-.6 2.2 1 .2zM63.4 12v9h5.3l.1-1.3H65V17h3.4v-1.2H65v-2.5h3.6l.2-1.3h-5.4zm9 4.4l-3 4.6H71l2.2-3.5 2.2 3.5h1.8l-3-4.6L77 12h-1.7l-2 3.2-2-3.2h-1.7l2.8 4.4zm10-.4c-.4.3-.9.5-1.5.5l-1-.1v-3.2h1c.6 0 1 0 1.4.3.3.3.5.7.5 1.2 0 .6-.2 1-.5 1.3zm-4-4v9H80v-3.5l1.1.2c.7 0 1.2-.2 1.7-.4s.9-.6 1.2-1c.2-.5.4-1 .4-1.6 0-.9-.3-1.6-1-2-.5-.5-1.4-.7-2.6-.7h-2.4zm7.5 0v9h5.2l.1-1.3h-3.7V12h-1.6zm11.7 7.5c-.4.3-1 .4-1.6.4a3 3 0 0 1-1.6-.4c-.4-.3-.7-.7-1-1.3a4.7 4.7 0 0 1 .1-3.4c.2-.5.6-1 1-1.2.4-.4 1-.5 1.6-.5.7 0 1.2.1 1.6.4.5.3.8.8 1 1.3l.2 1.7c0 .7 0 1.2-.3 1.8-.2.5-.5.9-1 1.2zm-4 1c.7.5 1.4.6 2.3.6a5 5 0 0 0 2.5-.5 4 4 0 0 0 1.6-1.7c.4-.7.6-1.5.6-2.5s-.2-1.7-.5-2.4c-.4-.7-.9-1.2-1.5-1.6-.7-.4-1.5-.5-2.4-.5a5 5 0 0 0-2.5.5 4 4 0 0 0-1.6 1.7c-.4.7-.5 1.5-.5 2.5 0 .9.1 1.7.5 2.4.3.7.8 1.2 1.5 1.6zm11.2-4.2h-1v-3.1h1.2c.6 0 1 0 1.3.3.3.2.4.5.4 1 0 .3 0 .6-.2 1l-.7.5c-.3.2-.6.3-1 .3zm-2.5-4.3v9h1.6v-3.6h1.1l2.4 3.6h1.8l-2.8-4c.3 0 .6-.3.9-.5.3-.2.5-.5.7-.9.2-.3.3-.8.3-1.2 0-.8-.3-1.4-.8-1.8-.5-.4-1.3-.6-2.3-.6h-2.9zm8.1 0v9h5.3l.1-1.3H112V17h3.4v-1.2H112v-2.5h3.6l.2-1.3h-5.4zm11.2 9h1.5v-9h-1.5v9zm5.6-7.7V21h1.6v-7.7h2.7l.1-1.3h-7l-.2 1.3h2.8zm15.2 6.2c-.4.3-1 .4-1.6.4a3 3 0 0 1-1.6-.4c-.4-.3-.7-.7-1-1.3a4.7 4.7 0 0 1 .1-3.4c.2-.5.6-1 1-1.2.4-.4 1-.5 1.6-.5.7 0 1.2.1 1.6.4.5.3.8.8 1 1.3l.2 1.7c0 .7 0 1.2-.3 1.8-.2.5-.5.9-1 1.2zm-4 1c.7.5 1.4.6 2.3.6a5 5 0 0 0 2.5-.5 4 4 0 0 0 1.6-1.7c.4-.7.6-1.5.6-2.5s-.2-1.7-.5-2.4c-.4-.7-.9-1.2-1.5-1.6-.7-.4-1.5-.5-2.4-.5a5 5 0 0 0-2.5.5 4 4 0 0 0-1.6 1.7c-.4.7-.6 1.5-.6 2.5 0 .9.2 1.7.6 2.4.3.7.8 1.2 1.5 1.6zM147 12v9h1.5v-5l-.1-2.1L153 21h1.8v-9h-1.5v7l-4.4-7h-1.8z" fill="#FFF"/><path d="M41.5 12c7.9 0 10.7 2.8 10.7 10.6v16.7c0 7.9-2.8 10.7-10.7 10.7H24.8c-7.8 0-10.7-2.8-10.7-10.7V22.6C14 14.8 17 12 24.8 12h16.7zM30.7 34l.8-1.8.8 1.8h-1.6zm-.3 1h2.2l.5 1h1L32 31h-1l-2 5h1l.5-1zM47 36h1v-5h-1v5zm-4-2.2h1.8V33H43v-1h2.7v-1H42v5h3.8v-.8H43v-1.3zm-4 .6L38 31h-1l-1 3.4-1.2-3.4h-1l1.7 5h.8l1.2-3.3 1.1 3.3h.9l1.7-5h-1L39 34.4zm-11.7-.6c0 .8-.4 1.3-1 1.3-.8 0-1.2-.5-1.2-1.3V31h-1v2.8c0 1.4.7 2.2 2.1 2.2 1.4 0 2.2-.8 2.2-2.2V31h-1v2.8zM21.6 31v2h-2.2v-2h-1v5h1v-2h2.2v2h1v-5h-1zm11.6-6.4c3.5 0 6.3-2.8 6.3-6.3h-.9a5.5 5.5 0 0 1-10.9 0h-.9c0 3.5 2.9 6.3 6.4 6.3z" fill="#C8102E"/></g></svg>