<svg width="600" height="544" viewBox="0 0 600 544" xmlns="http://www.w3.org/2000/svg"><g fill="none" fill-rule="evenodd"><path d="M451.4 459.4L300.5 543 147 457a180.5 180.5 0 0 1-73-141.5V46.7L186.2 24 300.5 1l65.8 14L526 48.9v261.8c0 58.5-27.6 113.6-74.6 148.7z" fill="#153B4B"/><path d="M220.2 293.5a59.5 59.5 0 1 1 0 119 59.5 59.5 0 0 1 0-119zm59.7-101.3a59.5 59.5 0 1 1-118.9 0 59.5 59.5 0 0 1 119 0zm100.4-59.8a59.5 59.5 0 1 1 0 118.9 59.5 59.5 0 0 1 0-119zM439.6 353a59.5 59.5 0 1 1-119 0 59.5 59.5 0 0 1 119 0z" fill="#04F99E"/><path d="M194.6 329.1c0-2 1.7-3.6 3.7-3.6h5.4a1.8 1.8 0 0 1 1.7 2.5c-.3.7-1 1.1-1.7 1.1h-5.4v5.5a1.8 1.8 0 0 1-1.9 1.8c-.5 0-1-.2-1.2-.5-.4-.3-.6-.8-.6-1.3v-5.5zm0 31.6v-5.4c0-.5.2-1 .6-1.3.3-.4.7-.6 1.2-.6 1 0 1.9.8 1.9 1.8v5.5h5.4a1.8 1.8 0 1 1 0 3.7h-5.4c-2 0-3.7-1.7-3.7-3.7zm38.6 19.4c-3.7.3-7.3.3-12.5.3-5.1 0-8.7 0-12.5-.3-6.5-.5-9.8-1.4-9.8-3.7 0-5 7.5-9.4 16.1-11.1l.1-3a15.8 15.8 0 1 1 11.5-.2l.2 3c8.8 2 16.7 6.4 16.7 11.3 0 2.3-3.3 3.2-9.8 3.7zm12.5-19.4a3.7 3.7 0 0 1-3.6 3.7h-5.5a1.8 1.8 0 0 1 0-3.7h5.4v-5.5a1.8 1.8 0 1 1 3.7 0v5.5zm0-26a1.8 1.8 0 1 1-3.7 0v-5.5h-5.4a1.8 1.8 0 0 1-.1-3.7h5.5c2 0 3.7 1.6 3.7 3.6v5.5zm-3.7-144v22.8c0 3.7-3 6.7-6.7 6.7h-29.5a6.7 6.7 0 0 1-6.6-6.7v-22.8c0-3.7 3-6.7 6.6-6.7h2.3c-.2-.4-.3-.8-.3-1.3v-6a12.7 12.7 0 0 1 25.5 0v7.3h2a6.7 6.7 0 0 1 6.7 6.7zm-21.4 16.8a5.4 5.4 0 0 0 0-10.7 5.4 5.4 0 0 0 0 10.7zm6-23.5v-7.3a6 6 0 0 0-12 0v6c0 .5-.2 1-.3 1.3h12.3zm152-26.5c13-.7 24.9 7.2 29.3 19.4a2.4 2.4 0 0 1-4.5 1.6 24.5 24.5 0 0 0-24.5-16.2 2.4 2.4 0 1 1-.3-4.8zm9.1 12.7a2.4 2.4 0 0 1-3 1.7 15.4 15.4 0 0 0-19.8 14.6c0 1.7-.1 5.6-1.2 6.8a2.4 2.4 0 0 1-4-2.6c.3-1.4.4-2.8.4-4.2a20.2 20.2 0 0 1 26-19.2c1.2.3 2 1.7 1.6 3zm-40 34a2.4 2.4 0 0 1-1.9-3.8c3.3-4 5.2-8.9 5.3-14a29 29 0 0 1 18-26.7 2.4 2.4 0 0 1 1.9 4.3 24.4 24.4 0 0 0-15.1 22.4 27 27 0 0 1-6.3 17c-.5.5-1.2.9-1.9.9zm6.4 7.1a2.4 2.4 0 0 1-3-3.7c3.2-2.5 4.5-5.6 5.6-8.1a2.4 2.4 0 0 1 4.4 1.8c-1.4 4-3.8 7.4-7 10zm4.6 6.9a2.4 2.4 0 0 1-1.7-4 41 41 0 0 0 10.7-17c1-3.3 1.4-6.7 1.3-10.1v-.6a11.3 11.3 0 0 1 22.6 0 2.4 2.4 0 1 1-4.8 0 6.5 6.5 0 0 0-13 0v.6a40 40 0 0 1-1.5 11.5c-2.7 9-8 15-11.9 18.9-.4.4-1 .7-1.7.7zm8.4 4.4a2.4 2.4 0 0 1-1.7-4 46.3 46.3 0 0 0 12.4-32 2.4 2.4 0 0 1 4.8-.1 47.6 47.6 0 0 1-13.7 35.4c-.5.4-1.1.7-1.8.7zm11.8 1.4a2.4 2.4 0 0 1-3.8-3 54.8 54.8 0 0 0 11.2-25.7 2.4 2.4 0 1 1 4.7.7 56.5 56.5 0 0 1-12.1 28zm9.5-.2a2.4 2.4 0 0 1-2-3.7 61 61 0 0 0 9.3-33.5 15.2 15.2 0 0 0-3.7-10 2.4 2.4 0 0 1 3.6-3.1 20 20 0 0 1 4.9 13 65.8 65.8 0 0 1-10 36.1c-.5.7-1.3 1.2-2 1.2zm15.3-7.7a2.4 2.4 0 0 1-4.2-2.3 57.4 57.4 0 0 0 5.2-27.2 2.4 2.4 0 1 1 4.8 0 62 62 0 0 1-5.8 29.5zm-23.5 104a32.7 32.7 0 1 1 0 65.5 32.7 32.7 0 0 1 0-65.4zm10.6 39.8h-8.3v-3.4h8.4a2 2 0 1 0 0-4h-7.2l7.4-15a2.2 2.2 0 1 0-4-2l-6.9 13.9-6.9-13.9a2.2 2.2 0 0 0-4 2l7.5 15h-7.2a2 2 0 1 0 0 4h8.2v3.4h-8.2a2 2 0 1 0 0 4.1h8.2v7.3a2.4 2.4 0 1 0 4.7 0V364h8.3a2 2 0 1 0 0-4.1z" fill="#FFF"/></g></svg>