<svg width="92" height="80" xmlns="http://www.w3.org/2000/svg"><g fill="none" fill-rule="evenodd" stroke="#F6F4F5" stroke-width="3"><path d="M64.4 3.9H35.8a5.7 5.7 0 0 0-5.7 5.5V69c0 3 2.6 5.5 5.7 5.5h40.6c3 0 5.6-2.4 5.6-5.5V21.2c0-1-.4-2-1-2.6L67 5a3.8 3.8 0 0 0-2.6-1.1z"/><g opacity=".5" transform="translate(11 18)"><rect transform="rotate(180 45 25.8)" x="27" y="2.2" width="36.1" height="47.1" rx="5"/><path d="M27 17.5h36.1M27 33.8h36.1m-26.1 0v15.5m0-47v15.2m7.5 16.3v15.5m0-47v15.2m8.3 16.3v15.5m0-47v15.2M14.8 48H11A10 10 0 0 1 1 38V10.9a10 10 0 0 1 10-10h3.8M1 16.1h13.8M1 32.4h13.8m-3.9 0v15.5m0-47V16"/></g><path d="M25.8 3.9h-16c-3 0-5.6 2.4-5.6 5.5V69c0 3 2.5 5.5 5.6 5.5h16"/></g></svg>