<svg width="466" height="75" xmlns="http://www.w3.org/2000/svg"><g fill="none" fill-rule="evenodd"><path d="M224.6 1.5h8.4c4 0 7 .8 9.2 2.4a8.8 8.8 0 0 1 3.2 7.3 10 10 0 0 1-5.7 9.6c-1.8.8-3.9 1.3-6.2 1.3-1.5 0-3-.2-4.6-.6v13.2h-4.3V1.5zM263 27.2h-15.4V24L263 1.2h4.3v22.4h4.9l-.6 3.6h-4.3v7.5H263v-7.5zm13.6 3.6c-1.8-2.8-2.7-7-2.7-12.4 0-5.6 1-9.8 2.8-12.9 1.9-3 4.7-4.5 8.5-4.5a9 9 0 0 1 8.2 4.3c1.8 2.8 2.7 7 2.7 12.5s-1 9.8-2.8 12.8a9.3 9.3 0 0 1-8.5 4.5 9 9 0 0 1-8.2-4.3zm-45.5 31.8l-1.5.2c-.7 0-1.2 0-1.7-.4a3 3 0 0 1-1.2-1 6.9 6.9 0 0 1-.6-4.9c.1-.5.4-1 .7-1.4.3-.4.7-.8 1.1-1a3 3 0 0 1 1.7-.4 3.6 3.6 0 0 1 1.5.3l-.1.8a2 2 0 0 0-.7-.3l-.8-.1a2.5 2.5 0 0 0-2.2 1.3 4 4 0 0 0-.5 1.2 6.6 6.6 0 0 0 0 2.7l.5 1.3.9.9c.4.2.8.3 1.3.3a3 3 0 0 0 1.5-.4v.9zm9.8-4.3l-.1 1.5-.5 1.5-1 1.1c-.4.3-.9.4-1.5.4s-1.1-.1-1.5-.4a3 3 0 0 1-1-1.1 5 5 0 0 1-.4-1.5 10.8 10.8 0 0 1 0-3.1l.5-1.5a2 2 0 0 1 1-1c.3-.4.8-.5 1.4-.5a2.6 2.6 0 0 1 2.5 1.5l.5 1.5v1.6zm3.9.6v-.7h2.5v.7h-2.5zm6.8 3.8v-8.9h3.7v.7h-3v3.2h2.8v.7h-2.8V62h3.1v.7h-3.8zm12.6 0l-3.7-8v8h-.7v-8.9h1l3.7 8v-8h.7v8.9h-1zm11.2-.4a3.7 3.7 0 0 1-2 .5c-.7 0-1.2 0-1.7-.4a3 3 0 0 1-1.2-1c-.3-.4-.5-1-.7-1.5a6.6 6.6 0 0 1 0-3.3c.2-.6.5-1 .8-1.5.3-.4.7-.8 1.1-1a3 3 0 0 1 1.7-.4 4.3 4.3 0 0 1 1.8.4v.9l-1-.5-1-.1c-.4 0-.9.1-1.2.3l-1 1-.4 1.2a6 6 0 0 0 0 2.8l.5 1.2c.3.4.6.7 1 .9.3.2.8.3 1.3.3h.7c.2 0 .4-.2.5-.3v-3.1h-1.5V58h2.3v4.3zm4.5.4v-8.9h.8v8.9h-.8zm10 0l-3.6-8v8h-.7v-8.9h1l3.7 8v-8h.7v8.9h-1zm6 0v-8.9h3.6v.7h-3v3.2h2.9v.7h-2.8V62h3v.7h-3.8zm8.1 0v-8.9h3.7v.7h-3v3.2h2.9v.7h-2.8V62h3v.7H304zm12.3 0l-1.1-3a12.8 12.8 0 0 0-.4-.8l-.3-.3a1 1 0 0 0-.5 0h-1v4h-.8v-8.8h2c.8 0 1.3.2 1.8.6.4.4.6 1 .6 1.7 0 .6-.2 1-.5 1.4a2 2 0 0 1-1.2.7c.2 0 .4.2.5.3l.3.5 1.4 3.7h-.8zm4.9 0v-8.9h3.7v.7h-3v3.2h2.8v.7H322V62h3.1v.7h-3.8zm13.6-4.4l-.3 1.8c-.1.5-.4 1-.7 1.4a3 3 0 0 1-1.3.9c-.5.2-1 .3-1.8.3h-1.3v-8.9h1c1.5 0 2.6.4 3.3 1.1.7.8 1 1.9 1 3.4zm16.4 4.4h-.8l-1.8-8-1.8 8h-.9l-2-8.9h.8l1.7 8 1.8-8h.8l1.8 8 1.7-8h.8l-2 8.9zm6 0v-8.9h.7v8.9h-.7zm7.4-8.2v8.2h-.7v-8.2h-2v-.7h4.7v.7h-2zm10.1 8.2v-4.3h-3.5v4.3h-.7v-8.9h.7v4h3.5v-4h.7v8.9h-.7zm-61-61h8.3c4 0 7 .7 9.2 2.4 2.1 1.7 3.2 4 3.2 7.2a10 10 0 0 1-5.7 9.6c-1.8.9-3.9 1.3-6.2 1.3-1.5 0-3-.2-4.6-.5v13.1h-4.3V1.6zm24.8 14.7c0-1.4 0-3.4-.2-6.2h3.9a47.6 47.6 0 0 1 .4 4.8c.7-1 1.3-2 2-2.7a8 8 0 0 1 2.2-1.9c1-.4 2-.7 3-.7a8 8 0 0 1 2.3.3l-.6 3.8a6 6 0 0 0-5.5.9c-1 .8-2.1 2-3.3 3.8v16.3h-4.2V16.4zm19.2 17.4c-1.7-1-3-2.4-4-4.3s-1.5-4.1-1.5-6.7c0-2.7.5-5 1.5-7a10.8 10.8 0 0 1 10.1-6c2.3 0 4.2.5 6 1.5 1.7 1 3 2.5 4 4.5 1 1.9 1.5 4.2 1.5 6.7 0 2.7-.5 5-1.6 6.9-1 2-2.3 3.4-4 4.4-1.9 1-3.8 1.5-6 1.5-2.3 0-4.2-.5-6-1.5zM23 15V1.5h6.8v33.3H23V21.3H7.8v13.5H1V1.5h6.8v13.4H23zm38.1 5.6v-19H68v18.8c0 9.5-5.3 15-14.4 15-9.1 0-14.3-5.4-14.3-14.8v-19H46v18.8c0 5.6 2.7 8.6 7.7 8.6 4.8 0 7.5-3 7.5-8.4zm78.2 3.9l7.4-23h7L142 34.9h-5.7l-7.3-22-7.6 21.9h-5.6L104 1.5h7.2l7.3 22.9 7.6-23h5.5l7.6 23zm26.5-4v8.3h18.5v6h-25.2V1.6h24.6v6h-17.9v6.9h12.3v6h-12.3zm26.6 14.4V1.5h6.6v33.3h-6.6zm-95.9-7H81.3l-3 7h-7L86 1.5h6l14.6 33.3h-7.1l-3-7zM410 32l1.2-3.4c1.2.9 2.5 1.6 4 2.2 1.4.6 3 .8 4.6.8 1.5 0 2.9-.3 4-.9a6 6 0 0 0 2.4-2.5c.6-1.2.9-2.4.9-4 0-2.1-.7-3.8-2-5a8.8 8.8 0 0 0-5.9-1.7 19.5 19.5 0 0 0-7.5 1.4L413 1.6h16.6l-.4 3.6h-12.9l-.8 9.5a16 16 0 0 1 10.5.5 9 9 0 0 1 5.5 8.8c0 2.2-.5 4.2-1.5 5.8-1 1.7-2.3 3-4 3.8a12 12 0 0 1-6.1 1.4c-4 0-7.2-1-10-3zm33.8 1a13.5 13.5 0 0 1-5.5-5.8 19.4 19.4 0 0 1-1.8-8.8c0-3.6.7-6.7 2.1-9.3 1.5-2.6 3.5-4.6 6-5.9 2.5-1.3 5.4-2 8.6-2a21.5 21.5 0 0 1 10.1 2.4L462 7a21 21 0 0 0-8.7-2.2 13 13 0 0 0-6.4 1.6c-1.9 1-3.3 2.6-4.4 4.6a16 16 0 0 0-1.5 7.4c0 2.5.4 4.8 1.2 6.7.8 2 2 3.5 3.8 4.7a11 11 0 0 0 6.5 1.7 20.7 20.7 0 0 0 7.4-1.3v-7.6h-8.2V19h12.4v13.2a26.8 26.8 0 0 1-11.8 2.8c-3.3 0-6.1-.7-8.5-2zm-52.3 1.9V1.6h2.4v33.2h-2.4zM239 16.7c1.5-1.3 2.2-3 2.2-5.4 0-2.2-.7-3.9-2.1-4.9-1.4-1-3.5-1.5-6.1-1.5h-4v13.3c1.5.2 2.7.4 3.8.4 2.7 0 4.8-.7 6.2-2zm24 7v-17l-11.3 17H263zm27.2 4.5a25 25 0 0 0 1.7-10.3c0-4.3-.6-7.6-1.6-10-1-2.3-2.7-3.5-5-3.5-4.6 0-7 4.6-7 14 0 4.3.6 7.6 1.7 9.9 1 2.3 2.7 3.4 5 3.4 2.4 0 4-1.2 5.2-3.5zm-50 30V57l-.4-1.3c-.1-.4-.4-.7-.7-1-.3-.2-.7-.3-1.2-.3s-.9.1-1.2.4c-.3.2-.5.6-.7 1l-.3 1.2a11.7 11.7 0 0 0 .1 3l.2.8.4.7.7.5.8.1c.5 0 1-.1 1.2-.4.3-.2.6-.6.7-1 .2-.3.3-.8.3-1.2l.1-1.2zm75.7-2.1c0-.6-.2-1-.5-1.2a2 2 0 0 0-1.3-.4h-1v3.3h1.1c.6 0 1-.1 1.3-.4.3-.3.4-.7.4-1.3zm18.2 2.2c0-.6 0-1-.2-1.5l-.5-1.2c-.3-.4-.6-.6-1-.8-.4-.2-1-.3-1.5-.3h-.7V62h.9c.5 0 1-.1 1.4-.3l1-.8.4-1.2.2-1.4zm-6-41.5c1.4-1.3 2-3 2-5.3s-.6-3.9-2-4.9c-1.4-1-3.5-1.5-6.1-1.5h-4v13.2c1.5.3 2.7.4 3.8.4 2.7 0 4.8-.6 6.2-1.9zM369 29.5c1.2-1.6 1.7-3.8 1.7-6.7 0-3-.6-5.3-1.8-7a6.1 6.1 0 0 0-5.3-2.7c-2.4 0-4.2.9-5.3 2.6a12 12 0 0 0-1.8 6.8c0 2 .3 3.7.8 5a6.9 6.9 0 0 0 2.5 3.3 7 7 0 0 0 4 1.1 6 6 0 0 0 5.2-2.4zM89 10l-5.1 12H94l-5.1-12z" fill="#211D1E"/><path d="M408.5 73.5a15 15 0 1 1 0-30 15 15 0 0 1 0 30zm9.1-17a2.7 2.7 0 0 0-2.6 2.3v.2s-.7.8-1.4.8c-.6 0-.7-.5-.7-.8 0-.4.3-1.7 1.1-1.7.4 0 .7.4.7.4l.2-.8s-.3-.3-1-.3c-1.7 0-2.8 1.2-2.9 2.3v.2c0 .1-.4.6-1 .6-.3 0-.3-.3-.3-.4l.7-2.6h-1.9l-.6 2.4s-1 .7-2.5.8c-.7 0-1-.4-1-.7h.6c.2 0 2.3-.2 2.3-1.5 0-.8-.7-1-1.7-1-1.8 0-3 1-3 2.3 0 1.2 1 1.7 2.3 1.7 1.5 0 3-.9 3-.9s0 1 1.2 1 2.2-1 2.2-1 .5.9 1.7.9 2.1-1 2.1-1 .4 1 1.6 1c1 0 1.4-.7 1.4-.7s.3.6 1.1.6a3 3 0 0 0 1.8-.7l-.2-.6-.6.3c-.2 0-.4-.1-.4-.3 0-.5.7-2.6.7-2.6h-1.7v.3s-.3-.5-1.2-.5zm-7.8-2c-.6 0-1 .3-1 .8 0 .6.5.7 1 .7s1-.2 1-.8c0-.6-.6-.7-1-.7zm-5.7-2.7c-2.9-.1-3.6 4-3.8 4.6-1 0-1.4-.2-1.4-.2l-.2.5c.6.3 1.5.4 1.5.4-.2 1-1 3.1-1 3.1s-.8-.2-1.8-.2c-1.2 0-1.7.6-1.7 1-.1.9 1.1 1.4 2 1.4 1.6 0 2.5-1 2.5-1s4.6 1.8 9.4 1.8c6.4 0 11.7-1.7 11.7-1.7l-.1-.6s-4 1.4-11.3 1.3c-5.1 0-9-1.6-9-1.6l.2-.4c.5-1 1.1-3.1 1.1-3.1s3.5-1 3.5-3.8c0-.9-.8-1.5-1.6-1.5zm-7 8.9h.2c.7 0 1.4.3 1.4.3s-.8.6-1.4.6c-.5 0-.8-.3-.8-.5 0-.3.3-.4.6-.4zm20.9-3.5c.3 0 .5.3.5.5 0 0-.2 2-1.2 2-.4 0-.4-.4-.4-.6 0-.4.3-1.9 1-1.9zm-12.3 0c.2 0 .4.2.4.4 0 1.1-1.5 1-1.5 1s.2-1.5 1-1.4zm-1.5-4.6c.5 0 .7.4.7.8-.3 2.4-2.6 2.9-2.6 2.9s.6-3.7 1.9-3.7z" fill="#E60012"/></g></svg>