<svg width="92" height="80" xmlns="http://www.w3.org/2000/svg" xmlns:xlink="http://www.w3.org/1999/xlink"><defs><path d="M30 53.5V42h2.2v9.5h5v2H30zm8.7 0V42h2.1v11.5h-2.1zm7 0L42.2 42h2.2l3 9.5 2.8-9.5h2.3L49 53.5h-3.3zm8 0V42h7.5v2h-5.3v2.5h4.3v2H56v3h5.3v2h-7.5z" id="a"/></defs><g fill="none" fill-rule="evenodd"><path d="M23.5 6c.6.3 23.1 17.4 23.1 17.4L68.6 6" stroke="#F6F4F5" stroke-width="3" stroke-linecap="round"/><rect stroke="#F6F4F5" stroke-width="3" stroke-linecap="round" x="6" y="24" width="78.9" height="46.3" rx="2"/><path d="M33.4 76.9h24" stroke="#F6F4F5" stroke-width="3" stroke-linecap="round"/><g fill="#F6F4F5"><use xlink:href="#a"/><use xlink:href="#a"/></g></g></svg>