<svg width="92" height="80" xmlns="http://www.w3.org/2000/svg"><g fill="none" fill-rule="evenodd"><path d="M3.5 8a63.2 63.2 0 0 1 27.3 4m35.6 35.8a61.5 61.5 0 0 1 3.5 28.4M4 28.4a42 42 0 0 1 19.3 2.4m24.1 24.5a41.3 41.3 0 0 1 2 20.9m-45.9-28a21.8 21.8 0 0 1 25.8 28.3" stroke="#F6F4F5" stroke-width="3" stroke-linecap="round"/><circle stroke="#F6F4F5" stroke-width="3" cx="8.6" cy="69.4" r="5.2"/><circle stroke="#F6F4F5" stroke-width="3" stroke-linecap="round" cx="48.5" cy="29.9" r="25.1"/><path d="M43 26.3c4.4 0 7.6 3.4 7.6 7.8a8 8 0 0 1-8.2 8c-4.7 0-8.2-3.6-8.2-8.6v-7.2c0-5.4 3.4-9 8.6-9 2.5 0 4.6.9 6.3 2.6l-2.9 2.8a4.5 4.5 0 0 0-8 3v2.5a7 7 0 0 1 4.8-1.9zm-.6 12a4.2 4.2 0 0 0 0-8.4 4.2 4.2 0 0 0 0 8.4zm17.1-1.1v-5.7h-5.7V28h5.8v-5.7H63V28h5.7v3.5H63v5.7z" fill="#F6F4F5"/></g></svg>